<?xml version="1.0" standalone="no"?>
<!DOCTYPE svg PUBLIC "-//W3C//DTD SVG 20010904//EN"
 "http://www.w3.org/TR/2001/REC-SVG-20010904/DTD/svg10.dtd">
<svg version="1.0" xmlns="http://www.w3.org/2000/svg"
 width="2746.000000pt" height="2746.000000pt" viewBox="0 0 2746.000000 2746.000000"
 preserveAspectRatio="xMidYMid meet">
<metadata>
Created by potrace 1.11, written by Peter Selinger 2001-2013
</metadata>
<g transform="translate(0.000000,2746.000000) scale(0.100000,-0.100000)"
fill="#000000" stroke="none">
<path d="M18998 20540 c-364 -46 -698 -282 -862 -609 -89 -176 -122 -336 -113
-535 23 -486 360 -894 845 -1023 85 -23 117 -26 262 -26 146 0 176 3 261 25
260 70 472 212 630 421 207 275 273 650 172 972 -121 382 -447 677 -843 760
-88 19 -265 26 -352 15z"/>
<path d="M3095 17564 c-22 -2 -92 -9 -155 -15 -1430 -136 -2582 -1158 -2869
-2544 -58 -280 -66 -369 -66 -740 1 -368 11 -473 71 -745 80 -359 228 -721
414 -1018 468 -745 1233 -1264 2119 -1437 230 -44 348 -56 618 -62 295 -6 463
4 698 44 942 158 1727 665 2191 1416 55 88 188 346 182 352 -2 2 -1039 467
-1564 701 l-51 22 -52 -91 c-261 -462 -785 -729 -1382 -704 -511 21 -945 259
-1215 663 -296 444 -335 1072 -98 1574 230 486 691 794 1257 840 473 38 930
-136 1214 -462 48 -56 147 -196 155 -220 3 -7 1517 848 1537 868 16 15 -155
284 -274 429 -163 200 -315 346 -520 500 -447 336 -983 542 -1600 615 -92 11
-537 21 -610 14z"/>
<path d="M23910 17564 c-851 -75 -1563 -403 -2117 -977 -498 -516 -801 -1177
-885 -1932 -17 -155 -17 -615 0 -755 59 -478 183 -879 390 -1255 480 -873
1344 -1461 2362 -1609 374 -54 812 -45 1178 25 1348 258 2349 1279 2576 2629
39 228 49 401 43 683 -8 324 -31 500 -107 794 -113 438 -320 851 -606 1210
-100 125 -351 376 -474 474 -478 381 -1016 608 -1650 694 -110 16 -602 28
-710 19z m428 -1744 c531 -58 960 -362 1186 -840 118 -252 172 -555 147 -828
-35 -388 -170 -694 -416 -950 -126 -131 -238 -216 -386 -291 -484 -246 -1070
-219 -1514 70 -339 220 -559 555 -652 989 -14 68 -18 130 -18 315 1 257 13
341 80 541 142 425 473 767 885 912 222 78 460 106 688 82z"/>
<path d="M13580 14285 l0 -3205 905 0 905 0 0 2340 0 2340 1035 0 1035 0 0
865 0 865 -1940 0 -1940 0 0 -3205z"/>
<path d="M18220 14285 l0 -3205 915 0 915 0 0 3205 0 3205 -915 0 -915 0 0
-3205z"/>
<path d="M6733 15588 c2 -1393 7 -1915 15 -1978 64 -455 146 -740 312 -1075
257 -523 634 -922 1139 -1204 709 -398 1682 -488 2519 -235 431 131 819 357
1135 663 269 261 460 531 613 871 147 325 245 723 274 1115 6 89 10 799 10
1938 l0 1797 -915 0 -915 0 0 -1817 c0 -1568 -2 -1832 -15 -1918 -45 -296
-150 -528 -323 -707 -232 -241 -527 -350 -906 -335 -152 6 -262 25 -377 65
-339 119 -588 395 -694 771 -63 220 -58 79 -62 2099 l-4 1842 -905 0 -905 0 4
-1892z"/>
<path d="M3832 10109 c-89 -13 -164 -44 -222 -90 -127 -101 -169 -214 -186
-511 l-7 -118 -118 0 -119 0 0 -155 0 -155 120 0 120 0 0 -770 0 -770 190 0
190 0 0 770 0 770 170 0 170 0 0 155 0 155 -171 0 -172 0 8 127 c13 235 58
279 280 272 l115 -4 -2 155 -3 154 -35 8 c-61 13 -262 17 -328 7z"/>
<path d="M13640 9624 l0 -416 -40 50 c-92 117 -196 162 -376 162 -74 0 -120
-6 -166 -20 -241 -74 -412 -338 -457 -705 -14 -114 -14 -369 -1 -472 52 -390
211 -634 455 -699 130 -35 280 -25 388 26 64 30 143 103 189 174 l38 59 0
-121 0 -122 180 0 180 0 0 1250 0 1250 -195 0 -195 0 0 -416z m-256 -498 c60
-18 139 -79 177 -136 16 -24 39 -74 51 -110 20 -60 22 -91 26 -373 5 -403 -12
-497 -110 -603 -61 -67 -127 -98 -208 -98 -118 0 -194 62 -249 202 -50 126
-74 381 -60 620 18 286 95 456 226 496 62 19 89 19 147 2z"/>
<path d="M19150 8790 l0 -1250 195 0 195 0 0 1250 0 1250 -195 0 -195 0 0
-1250z"/>
<path d="M4680 9893 c-80 -8 -147 -17 -150 -20 -3 -2 -9 -112 -14 -244 l-9
-239 -123 0 -124 0 0 -155 0 -155 119 0 120 0 4 -597 c4 -648 6 -672 61 -780
33 -66 122 -146 190 -172 119 -44 302 -52 474 -20 l62 11 0 157 0 156 -121 -3
c-171 -5 -223 17 -266 113 -16 37 -18 87 -21 588 l-3 547 175 0 176 0 0 155 0
155 -175 0 -175 0 0 260 0 260 -27 -1 c-16 -1 -93 -8 -173 -16z"/>
<path d="M575 9433 c-230 -30 -438 -215 -490 -434 -43 -183 5 -359 132 -486
75 -76 173 -125 413 -208 91 -31 181 -65 201 -76 116 -59 167 -161 135 -271
-20 -67 -62 -119 -123 -149 -40 -19 -64 -23 -148 -24 -94 0 -105 2 -167 33
-49 24 -76 45 -102 80 -36 50 -76 139 -76 172 0 10 -4 21 -9 24 -8 5 -96 -9
-279 -45 l-54 -11 7 -44 c9 -63 48 -174 81 -231 39 -67 128 -152 200 -190 111
-59 199 -77 374 -77 114 0 173 4 225 17 205 52 373 199 437 384 32 93 32 279
1 365 -63 170 -202 268 -558 393 -281 99 -325 135 -325 268 0 141 88 227 233
227 126 0 223 -75 282 -217 13 -32 28 -58 32 -57 4 1 73 18 151 39 l144 38 -6
30 c-3 16 -26 71 -50 122 -82 173 -217 283 -391 320 -65 14 -198 18 -270 8z"/>
<path d="M2135 9430 c-328 -59 -516 -288 -570 -697 -17 -129 -19 -383 -4 -508
56 -456 290 -712 669 -732 414 -22 672 193 755 631 37 195 37 521 -1 702 -38
187 -101 311 -214 424 -128 128 -255 179 -460 185 -69 2 -147 0 -175 -5z m273
-327 c122 -75 173 -222 188 -535 12 -251 -21 -500 -82 -625 -51 -105 -153
-163 -264 -150 -134 16 -210 108 -256 312 -21 93 -31 488 -15 607 31 229 104
370 216 413 62 23 155 14 213 -22z"/>
<path d="M8097 9430 c-94 -15 -219 -63 -295 -114 -89 -59 -152 -128 -196 -217
-34 -68 -65 -174 -53 -185 7 -7 359 -53 368 -48 4 2 10 20 13 39 11 56 41 119
77 159 49 57 101 79 195 84 72 4 89 1 136 -21 95 -43 136 -134 145 -323 l6
-111 -164 -6 c-353 -13 -552 -78 -689 -224 -207 -220 -215 -624 -17 -825 156
-158 426 -194 639 -87 75 38 182 141 225 217 l30 52 6 -107 c4 -60 9 -123 13
-140 l7 -33 184 0 184 0 -6 53 c-4 28 -9 59 -12 67 -4 8 -10 305 -14 660 -8
698 -11 737 -64 846 -52 106 -196 211 -340 250 -71 19 -295 27 -378 14z m390
-1117 c-3 -71 -13 -155 -21 -188 -38 -141 -127 -269 -219 -317 -51 -25 -139
-34 -195 -19 -24 7 -61 28 -82 47 -56 50 -75 108 -75 224 0 116 20 180 77 244
83 96 198 135 397 135 l124 1 -6 -127z"/>
<path d="M10815 9425 c-38 -8 -108 -33 -155 -56 -68 -34 -102 -59 -171 -129
-74 -73 -94 -102 -138 -191 -95 -193 -127 -377 -118 -673 10 -334 78 -529 241
-692 80 -80 166 -132 276 -166 98 -30 318 -33 419 -5 207 57 361 205 441 424
31 87 48 153 37 153 -2 0 -72 9 -153 20 -211 28 -198 30 -212 -31 -20 -86 -68
-174 -119 -219 -114 -100 -293 -90 -406 23 -76 76 -113 198 -124 405 l-6 122
521 0 522 0 0 64 c0 150 -32 373 -72 496 -69 216 -232 386 -428 445 -77 23
-266 28 -355 10z m292 -311 c92 -57 149 -181 160 -351 l6 -93 -318 0 -318 0 7
70 c20 198 91 334 201 387 43 21 61 24 132 20 69 -3 89 -8 130 -33z"/>
<path d="M15005 9433 c-160 -21 -334 -129 -439 -272 -84 -113 -145 -278 -172
-462 -22 -155 -15 -474 14 -600 44 -187 120 -329 233 -433 76 -70 141 -109
244 -143 71 -24 95 -27 225 -27 108 0 161 4 209 17 200 54 348 192 431 400 31
78 55 165 48 172 -5 6 -293 45 -329 45 -22 0 -27 -6 -38 -52 -55 -222 -211
-328 -399 -273 -157 47 -237 200 -249 483 l-6 122 523 0 523 0 -7 132 c-13
247 -63 458 -137 586 -53 90 -172 203 -260 246 -111 55 -273 78 -414 59z m206
-298 c66 -23 114 -67 149 -139 33 -66 59 -187 60 -273 l0 -53 -315 0 -315 0 0
38 c0 67 37 216 68 279 34 67 103 134 154 150 50 16 149 15 199 -2z"/>
<path d="M17975 9424 c-38 -9 -108 -34 -155 -56 -68 -33 -100 -56 -165 -122
-169 -173 -248 -394 -262 -736 -21 -542 169 -895 538 -997 49 -14 99 -18 209
-17 129 1 154 4 226 27 210 69 348 223 428 476 15 46 25 85 24 87 -8 7 -338
46 -351 41 -8 -3 -18 -23 -22 -45 -10 -59 -61 -162 -103 -205 -62 -65 -104
-82 -202 -82 -73 0 -92 4 -136 27 -137 72 -193 201 -210 479 l-7 109 524 0
524 0 -7 140 c-9 173 -31 308 -69 425 -42 126 -80 188 -174 282 -93 94 -181
143 -300 168 -88 18 -219 18 -310 -1z m236 -284 c127 -35 202 -165 217 -374
l7 -96 -317 0 c-304 0 -318 1 -318 19 0 10 7 56 15 102 34 199 100 305 214
345 44 16 133 18 182 4z"/>
<path d="M20455 9426 c-149 -30 -238 -76 -335 -175 -149 -151 -218 -354 -236
-693 -13 -265 29 -525 112 -697 37 -76 61 -109 128 -177 67 -68 97 -90 166
-123 117 -55 224 -75 365 -68 130 7 204 25 303 73 157 77 275 232 335 444 69
241 74 630 11 878 -68 272 -243 463 -482 528 -79 22 -279 27 -367 10z m239
-298 c61 -18 147 -108 175 -183 46 -123 55 -194 55 -465 1 -270 -7 -347 -49
-471 -45 -135 -122 -206 -232 -216 -247 -22 -358 224 -340 752 9 247 47 402
123 502 60 79 166 111 268 81z"/>
<path d="M24025 9433 c-160 -21 -334 -129 -439 -272 -82 -111 -144 -277 -170
-453 -20 -136 -21 -401 -1 -532 18 -118 69 -272 116 -353 47 -80 180 -211 254
-250 116 -61 194 -78 350 -78 157 1 226 15 333 68 126 63 239 194 301 348 32
80 56 167 49 174 -5 6 -293 45 -329 45 -22 0 -27 -6 -38 -52 -56 -222 -211
-328 -399 -273 -157 47 -237 200 -249 483 l-6 122 522 0 521 0 0 58 c0 171
-42 426 -91 553 -81 210 -259 365 -464 404 -71 14 -189 17 -260 8z m206 -298
c66 -23 114 -67 149 -139 33 -66 59 -187 60 -273 l0 -53 -315 0 -315 0 0 38
c0 67 37 216 68 279 34 67 103 134 154 150 50 16 149 15 199 -2z"/>
<path d="M26625 9424 c-116 -25 -208 -76 -295 -163 -117 -118 -165 -235 -163
-401 2 -149 52 -260 162 -362 71 -66 164 -112 373 -184 215 -73 294 -116 332
-177 54 -87 45 -195 -22 -269 -47 -52 -104 -78 -190 -85 -181 -15 -311 70
-364 240 -12 39 -23 73 -24 75 -2 4 -327 -57 -332 -62 -9 -9 40 -175 70 -236
66 -136 208 -245 374 -287 98 -24 354 -24 443 0 228 62 393 216 446 418 17 62
19 224 4 288 -42 182 -202 309 -535 424 -256 89 -313 120 -345 191 -38 84 -19
187 47 253 46 46 92 63 170 63 131 0 229 -78 286 -225 13 -34 26 -54 33 -51 7
2 66 19 131 36 65 18 128 36 140 41 l23 8 -19 56 c-58 169 -164 299 -291 360
-134 63 -300 81 -454 49z"/>
<path d="M9981 9414 c-127 -45 -230 -156 -308 -334 l-33 -75 0 193 0 192 -170
0 -170 0 0 -925 0 -925 194 0 195 0 4 563 c4 620 3 615 69 740 37 69 82 111
158 146 45 21 73 27 158 29 l102 4 0 204 0 204 -77 0 c-43 -1 -98 -8 -122 -16z"/>
<path d="M25819 9406 c-31 -12 -69 -32 -85 -43 -79 -57 -178 -195 -220 -308
l-19 -50 -3 193 -2 192 -170 0 -170 0 0 -925 0 -925 195 0 195 0 0 523 c1 395
4 540 14 597 31 171 92 267 202 321 61 30 79 34 171 37 l103 4 0 204 0 204
-77 0 c-58 0 -92 -6 -134 -24z"/>
<path d="M22358 9401 c-31 -10 -71 -28 -90 -39 -51 -32 -133 -120 -172 -186
l-36 -60 0 137 0 137 -180 0 -180 0 0 -1240 0 -1240 195 0 195 0 0 399 0 400
57 -60 c197 -207 572 -192 763 29 48 56 129 210 159 304 45 135 62 246 68 433
8 263 -18 447 -87 615 -79 192 -237 342 -400 379 -73 17 -227 12 -292 -8z
m156 -286 c82 -39 140 -131 178 -282 21 -80 23 -112 23 -348 0 -212 -3 -275
-18 -342 -50 -233 -143 -339 -297 -337 -160 2 -274 125 -300 326 -18 135 -8
635 14 713 44 157 128 257 241 286 41 11 118 3 159 -16z"/>
<path d="M5484 8465 l231 -925 166 0 167 0 15 68 c8 37 66 312 128 612 62 300
115 548 118 552 4 4 67 -270 141 -610 l135 -617 169 0 168 0 228 920 227 920
-155 3 c-86 1 -158 -1 -162 -5 -4 -5 -69 -283 -146 -620 -76 -336 -141 -610
-143 -607 -2 2 -61 280 -131 617 l-126 612 -174 0 -174 0 -127 -607 c-70 -334
-129 -612 -131 -618 -2 -6 -61 258 -131 587 -71 329 -131 608 -134 621 -5 22
-6 22 -198 22 l-192 0 231 -925z"/>
<path d="M15902 9368 c3 -13 121 -429 263 -925 l258 -903 176 0 177 0 244 863
c133 474 251 890 261 925 l18 62 -172 0 -172 0 -164 -645 c-91 -354 -167 -642
-170 -639 -3 3 -81 292 -172 642 l-166 637 -193 3 -192 2 4 -22z"/>
</g>
</svg>
